<?xml version="1.0" standalone="no"?>
<!DOCTYPE svg PUBLIC "-//W3C//DTD SVG 20010904//EN"
 "http://www.w3.org/TR/2001/REC-SVG-20010904/DTD/svg10.dtd">
<svg version="1.0" xmlns="http://www.w3.org/2000/svg"
 width="194.000000pt" height="133.000000pt" viewBox="0 0 194.000000 133.000000"
 preserveAspectRatio="xMidYMid meet">

<g transform="translate(0.000000,133.000000) scale(0.100000,-0.100000)"
fill="#000000" stroke="none">
<path d="M1076 1309 c-14 -11 -33 -34 -41 -50 -15 -28 -18 -29 -84 -29 -53 0
-74 -4 -94 -20 -16 -13 -40 -20 -67 -20 -23 0 -64 -10 -91 -21 l-49 -22 -59
37 c-39 24 -71 36 -95 36 -39 0 -57 -19 -121 -128 -16 -29 -33 -52 -36 -52 -4
0 -26 32 -49 71 -23 39 -51 80 -61 90 -29 29 -74 23 -140 -17 -64 -38 -89 -67
-89 -100 0 -11 61 -119 135 -238 l134 -217 -37 -16 c-54 -22 -82 -52 -82 -86
0 -32 173 -439 199 -471 24 -28 56 -37 92 -24 26 9 38 24 69 92 l37 81 15 -35
c46 -106 60 -129 89 -139 20 -7 38 -7 58 0 29 10 45 35 89 139 l14 35 21 -44
c43 -91 130 -150 232 -158 51 -4 64 -2 87 16 24 20 27 29 30 94 3 69 4 72 29
75 21 2 28 -2 33 -21 3 -13 30 -47 60 -75 62 -59 103 -68 148 -33 23 19 28 19
74 5 115 -36 255 22 319 130 65 112 45 257 -47 347 -48 46 -97 70 -162 78 -58
7 -76 34 -33 50 13 5 34 22 46 36 l21 27 49 -16 c76 -25 146 -21 176 9 24 24
25 28 25 183 0 178 -6 195 -75 208 -33 6 -55 2 -155 -27 -19 -6 -44 -10 -55
-9 -11 1 -50 3 -88 4 -61 2 -70 6 -98 34 -40 41 -88 44 -125 7 l-26 -26 7 55
c9 68 -6 117 -46 151 -41 34 -142 36 -183 4z m131 -71 c43 -40 18 -108 -39
-108 -62 0 -91 67 -48 110 26 26 58 25 87 -2z m-187 -328 l0 -240 -55 0 c-55
0 -55 0 -55 30 0 26 -3 29 -17 22 -31 -17 -97 -23 -132 -13 -123 37 -186 173
-130 284 28 55 46 75 91 98 40 21 120 25 162 9 24 -9 26 -8 26 20 0 30 1 30
55 30 l55 0 0 -240z m-765 105 c42 -69 80 -125 83 -125 4 0 40 54 80 120 41
66 78 122 82 125 9 5 90 -40 90 -50 0 -10 -225 -381 -244 -402 -8 -9 -43 41
-138 195 l-127 206 42 28 c23 15 45 28 49 28 3 0 41 -56 83 -125z m965 -105
l0 -190 -55 0 -55 0 0 190 0 190 55 0 55 0 0 -190z m234 70 c-8 -7 -53 47 -46
56 4 4 2 4 -5 0 -13 -7 -8 -49 7 -54 5 -2 10 -8 10 -14 0 -6 -6 -8 -14 -5 -10
4 -12 0 -9 -14 3 -10 10 -19 17 -19 6 0 3 -5 -6 -11 -12 -7 -18 -22 -18 -49 0
-45 15 -60 35 -34 14 18 14 18 15 -3 0 -19 -5 -23 -30 -23 l-30 0 0 133 1 132
38 -45 c22 -25 37 -47 35 -50z m386 51 c0 -5 -9 -7 -20 -4 -23 6 -43 -32 -29
-58 4 -9 6 -28 4 -42 -6 -31 13 -46 30 -24 9 13 12 5 11 -42 0 -48 -3 -58 -15
-53 -10 4 -11 7 -3 10 7 2 12 11 12 19 0 14 -3 14 -20 -2 -27 -24 -25 -31 8
-43 l27 -10 -32 1 c-23 0 -33 6 -38 21 -4 13 -8 16 -12 9 -8 -22 -60 -14 -92
13 -25 21 -29 29 -21 44 14 25 13 35 -2 22 -10 -8 -13 -3 -14 19 -1 16 3 29 8
29 5 0 7 3 5 8 -9 13 37 59 66 66 22 5 27 3 26 -11 0 -11 -3 -13 -6 -6 -3 9
-10 10 -22 3 -10 -5 -22 -6 -26 -2 -4 4 -5 -2 -3 -13 1 -11 -3 -20 -9 -21 -26
-3 -28 -5 -10 -15 13 -7 21 -6 32 4 8 8 12 17 9 20 -3 3 -1 8 5 12 6 3 11 1
11 -5 0 -8 6 -7 21 1 12 6 19 7 16 2 -2 -4 4 -17 14 -27 11 -11 19 -16 19 -13
0 11 -24 51 -35 59 -6 5 -3 8 6 8 9 0 19 7 23 15 6 16 56 21 56 6z m-270 -31
c0 -6 -8 -10 -17 -8 -13 2 -19 -4 -20 -22 -2 -23 -2 -23 6 -5 9 19 10 19 10
-2 1 -13 -4 -23 -10 -23 -6 0 -8 -9 -4 -20 4 -13 1 -22 -8 -26 -8 -3 -14 -16
-13 -30 0 -14 6 -22 13 -20 16 7 27 -11 12 -20 -8 -4 -7 -9 2 -15 22 -14 28
-11 24 11 -2 11 -1 20 3 20 4 0 8 -20 9 -45 1 -28 -2 -43 -8 -39 -6 3 -8 13
-5 21 3 8 2 12 -3 9 -4 -3 -16 3 -26 14 -10 11 -16 20 -13 20 3 0 -13 19 -36
42 -22 23 -45 41 -51 40 -5 -1 -3 3 5 10 8 7 16 22 17 33 1 11 0 14 -3 8 -6
-15 -24 -17 -24 -4 0 21 34 21 56 0 22 -20 24 -46 3 -33 -5 3 -7 9 -4 14 3 5
1 11 -4 15 -6 3 -8 -3 -6 -15 2 -11 -1 -20 -6 -20 -6 0 -7 -5 -4 -10 4 -6 11
-7 17 -4 8 5 9 1 4 -11 -5 -15 -4 -16 9 -5 8 7 12 16 9 21 -3 5 0 9 5 9 6 0
11 20 11 43 0 24 3 47 7 50 10 11 43 8 43 -3z m270 -24 c0 -19 -3 -37 -7 -39
-5 -3 -8 12 -8 34 0 21 3 39 8 39 4 0 7 -15 7 -34z m-260 -16 c0 -5 -2 -10 -4
-10 -3 0 -8 5 -11 10 -3 6 -1 10 4 10 6 0 11 -4 11 -10z m-3 -87 c-2 -16 -4
-5 -4 22 0 28 2 40 4 28 2 -13 2 -35 0 -50z m-962 -352 c33 -78 62 -141 65
-141 3 0 22 41 44 90 21 50 42 90 47 90 17 0 89 -32 89 -40 0 -4 -11 -32 -24
-61 -13 -30 -52 -120 -87 -201 -35 -82 -66 -148 -69 -148 -3 0 -34 65 -69 145
-34 80 -64 145 -66 145 -1 0 -31 -65 -66 -145 -34 -80 -65 -145 -68 -145 -6 1
-181 399 -181 412 0 12 91 41 99 32 4 -5 23 -44 42 -87 18 -43 36 -80 39 -82
3 -2 26 42 50 98 24 56 52 121 63 145 10 23 21 41 25 38 4 -2 34 -68 67 -145z
m895 69 c0 -67 1 -70 19 -60 25 13 112 13 148 -1 77 -29 144 -144 128 -222
-30 -140 -183 -215 -303 -147 l-44 25 -28 -35 -29 -35 -40 40 -41 39 35 36 35
36 0 197 0 197 60 0 60 0 0 -70z m-342 -65 c79 -34 121 -102 122 -197 l0 -58
-145 0 c-117 0 -145 -3 -145 -14 0 -25 35 -58 70 -65 34 -7 35 -8 38 -59 3
-49 2 -52 -21 -52 -84 0 -175 68 -196 145 -23 84 -8 179 39 245 44 62 157 88
238 55z"/>
<path d="M749 971 c-38 -38 -40 -91 -4 -126 59 -60 160 -19 160 66 0 83 -96
120 -156 60z"/>
<path d="M1700 940 c-21 -22 -30 -27 -30 -16 0 9 -4 16 -10 16 -13 0 -13 -6 0
-31 7 -13 7 -25 0 -38 -7 -13 -7 -22 0 -26 5 -3 10 3 10 14 0 11 3 22 8 24 7
5 33 -17 32 -28 -1 -21 1 -25 11 -25 6 0 9 7 5 15 -3 9 0 15 8 15 7 0 13 -7
13 -15 0 -8 -4 -15 -9 -15 -5 0 -6 -5 -2 -11 4 -7 10 -7 16 -1 6 6 16 8 23 6
12 -5 55 39 55 56 0 12 -44 4 -48 -10 -3 -8 0 -10 8 -5 9 6 9 3 0 -15 -17 -31
-38 -10 -23 22 24 49 23 53 -19 87 -16 12 -21 9 -48 -19z"/>
<path d="M1681 855 c-1 -22 16 -45 33 -45 5 0 2 8 -6 18 -9 9 -18 24 -21 32
-4 11 -6 9 -6 -5z"/>
<path d="M1535 405 c-19 -18 -25 -35 -25 -65 0 -56 34 -90 90 -90 56 0 90 34
90 90 0 56 -34 90 -90 90 -30 0 -47 -6 -65 -25z"/>
<path d="M1032 414 c-38 -26 -25 -34 61 -34 l82 1 -28 24 c-33 29 -81 33 -115
9z"/>
</g>
</svg>
